<svg width="102" height="30" viewBox="0 0 102 30" fill="none" xmlns="http://www.w3.org/2000/svg">
<path d="M17.0609 16.3304H21.4267L17.7318 12.7119H13.2051V17.0205L17.0609 20.8273V16.3304Z" fill="#EE7913"/>
<path d="M61.5534 14.5482V25.474C58.5193 27.6674 53.8861 29.17 49.9089 29.17C41.2166 29.17 34.6152 22.9155 34.6152 14.6703C34.6152 6.46581 41.3395 0.251709 50.2783 0.251709C54.5426 0.251709 58.8883 1.8764 61.7996 4.39444L58.1504 8.98426C56.0181 7.03471 53.0664 5.8161 50.2783 5.8161C45.1937 5.8161 41.2576 9.67458 41.2576 14.6703C41.2576 19.7066 45.2349 23.5654 50.3189 23.5654C52.041 23.5654 54.0913 22.9561 55.9364 22.022V14.5484H61.5534V14.5482Z" fill="url(#paint0_linear_4085_1480)"/>
<path d="M67.2129 28.8856V0.45459H73.691V28.8856H67.2129Z" fill="url(#paint1_linear_4085_1480)"/>
<path d="M101.449 3.25716L98.9477 8.5777C95.9136 6.79059 92.3054 5.65338 90.0094 5.65338C87.8363 5.65338 86.3604 6.42512 86.3604 7.9686C86.3604 13.2081 101.654 10.2838 101.613 20.5188C101.613 26.0832 96.7335 29.0887 90.3785 29.0887C85.6631 29.0887 80.9479 27.3016 77.709 24.5803L80.292 19.341C83.2443 21.9407 87.4262 23.6058 90.4603 23.6058C93.1257 23.6058 94.7246 22.631 94.7246 20.8845C94.7246 15.5233 79.4309 18.6507 79.4309 8.5779C79.4309 3.41979 83.9002 0.17041 90.5427 0.17041C94.5608 0.170209 98.5788 1.38883 101.449 3.25716Z" fill="url(#paint2_linear_4085_1480)"/>
<path d="M31.0629 25.7678L23.2736 18.1396H18.8867V22.6306L26.3511 30.0002H31.0629V25.7678Z" fill="url(#paint3_linear_4085_1480)"/>
<path d="M18.8889 18.1393H23.2758L21.4283 16.3301H17.0625V20.827L18.8889 22.6302V18.1393Z" fill="#F0E64A"/>
<path d="M17.6807 23.7409C17.0193 23.8917 16.3315 23.9735 15.6221 23.9735C10.5476 23.9735 6.23198 19.84 6.23198 14.4807C6.23198 9.12133 10.5001 5.07891 15.6221 5.07891C20.744 5.07891 24.8224 9.12113 24.8224 14.4807C24.8224 15.3523 24.7128 16.191 24.5101 16.9855L29.2068 21.6372C30.4178 19.5355 31.0952 17.0918 31.0952 14.4449C31.0952 6.18475 24.4407 0 15.5271 0C6.65429 0 0 6.14415 0 14.4449C0 22.7862 6.6545 29.0526 15.5271 29.0526C17.8176 29.0526 19.9582 28.6353 21.8758 27.8758L17.6807 23.7409Z" fill="url(#paint4_linear_4085_1480)"/>
<path d="M13.2051 12.7119L31.0635 30.0001V25.7676L23.2742 18.1396L21.4268 16.3304L17.7319 12.7119H13.2051Z" fill="white" fill-opacity="0.172549"/>
<defs>
<linearGradient id="paint0_linear_4085_1480" x1="48.5201" y1="29.9565" x2="48.074" y2="0.3454" gradientUnits="userSpaceOnUse">
<stop stop-color="#589632"/>
<stop offset="1" stop-color="#93B023"/>
</linearGradient>
<linearGradient id="paint1_linear_4085_1480" x1="70.6816" y1="29.6227" x2="70.2355" y2="0.011482" gradientUnits="userSpaceOnUse">
<stop stop-color="#589632"/>
<stop offset="1" stop-color="#93B023"/>
</linearGradient>
<linearGradient id="paint2_linear_4085_1480" x1="89.8155" y1="29.3343" x2="89.3694" y2="-0.276758" gradientUnits="userSpaceOnUse">
<stop stop-color="#589632"/>
<stop offset="1" stop-color="#93B023"/>
</linearGradient>
<linearGradient id="paint3_linear_4085_1480" x1="25.0702" y1="30.4091" x2="24.6204" y2="0.54932" gradientUnits="userSpaceOnUse">
<stop stop-color="#589632"/>
<stop offset="1" stop-color="#93B023"/>
</linearGradient>
<linearGradient id="paint4_linear_4085_1480" x1="15.7935" y1="30.4494" x2="15.3474" y2="0.838389" gradientUnits="userSpaceOnUse">
<stop stop-color="#589632"/>
<stop offset="1" stop-color="#93B023"/>
</linearGradient>
</defs>
</svg>
